<svg width="48" height="48" viewBox="0 0 48 48" fill="none" xmlns="http://www.w3.org/2000/svg">
<path d="M0 0H3.18125V3.18125H0V0ZM3.18125 0H6.3625V3.18125H3.18125V0ZM3.18125 3.18125H6.3625V6.3625H3.18125V3.18125ZM3.18125 6.3625H6.3625V9.54375H3.18125V6.3625ZM3.18125 9.54375H6.3625V12.725H3.18125V9.54375ZM3.18125 12.725H6.3625V15.9063H3.18125V12.725ZM6.3625 9.54375H9.54375V12.725H6.3625V9.54375ZM6.3625 6.3625H9.54375V9.54375H6.3625V6.3625ZM6.3625 3.18125H9.54375V6.3625H6.3625V3.18125ZM6.3625 0H9.54375V3.18125H6.3625V0ZM0 6.3625H3.18125V9.54375H0V6.3625ZM0 3.18125H3.18125V6.3625H0V3.18125ZM0 9.54375H3.18125V12.725H0V9.54375ZM0 12.725H3.18125V15.9063H0V12.725ZM0 15.9063H3.18125V19.0875H0V15.9063ZM0 19.0875H3.18125V22.2688H0V19.0875ZM0 22.2688H3.18125V25.45H0V22.2688ZM0 25.45H3.18125V28.6313H0V25.45ZM0 28.6313H3.18125V31.8125H0V28.6313ZM0 31.8125H3.18125V34.9938H0V31.8125ZM0 34.9938H3.18125V38.175H0V34.9938ZM0 38.175H3.18125V41.3563H0V38.175ZM3.18125 38.175H6.3625V41.3563H3.18125V38.175ZM3.18125 41.3563H6.3625V44.5375H3.18125V41.3563ZM3.18125 44.5375H6.3625V47.7188H3.18125V44.5375ZM0 44.5375H3.18125V47.7188H0V44.5375ZM0 41.3563H3.18125V44.5375H0V41.3563ZM6.3625 44.5375H9.54375V47.7188H6.3625V44.5375ZM6.3625 41.3563H9.54375V44.5375H6.3625V41.3563ZM6.3625 38.175H9.54375V41.3563H6.3625V38.175ZM6.3625 34.9938H9.54375V38.175H6.3625V34.9938ZM6.3625 31.8125H9.54375V34.9938H6.3625V31.8125ZM6.3625 28.6313H9.54375V31.8125H6.3625V28.6313ZM6.3625 25.45H9.54375V28.6313H6.3625V25.45ZM3.18125 25.45H6.3625V28.6313H3.18125V25.45ZM3.18125 22.2688H6.3625V25.45H3.18125V22.2688ZM3.18125 19.0875H6.3625V22.2688H3.18125V19.0875ZM3.18125 15.9063H6.3625V19.0875H3.18125V15.9063ZM6.3625 12.725H9.54375V15.9063H6.3625V12.725ZM6.3625 15.9063H9.54375V19.0875H6.3625V15.9063ZM6.3625 19.0875H9.54375V22.2688H6.3625V19.0875ZM6.3625 22.2688H9.54375V25.45H6.3625V22.2688ZM3.18125 28.6313H6.3625V31.8125H3.18125V28.6313ZM3.18125 31.8125H6.3625V34.9938H3.18125V31.8125ZM3.18125 34.9938H6.3625V38.175H3.18125V34.9938ZM44.5375 0H47.7188V3.18125H44.5375V0ZM44.5375 3.18125H47.7188V6.3625H44.5375V3.18125ZM44.5375 6.3625H47.7188V9.54375H44.5375V6.3625ZM44.5375 9.54375H47.7188V12.725H44.5375V9.54375ZM44.5375 12.725H47.7188V15.9063H44.5375V12.725ZM44.5375 15.9063H47.7188V19.0875H44.5375V15.9063ZM44.5375 19.0875H47.7188V22.2688H44.5375V19.0875ZM44.5375 22.2688H47.7188V25.45H44.5375V22.2688ZM44.5375 25.45H47.7188V28.6313H44.5375V25.45ZM44.5375 28.6313H47.7188V31.8125H44.5375V28.6313ZM44.5375 31.8125H47.7188V34.9938H44.5375V31.8125ZM44.5375 34.9938H47.7188V38.175H44.5375V34.9938ZM44.5375 38.175H47.7188V41.3563H44.5375V38.175ZM44.5375 41.3563H47.7188V44.5375H44.5375V41.3563ZM44.5375 44.5375H47.7188V47.7188H44.5375V44.5375ZM41.3562 44.5375H44.5375V47.7188H41.3562V44.5375ZM38.175 41.3563H41.3562V44.5375H38.175V41.3563ZM38.175 38.175H41.3562V41.3563H38.175V38.175ZM38.175 44.5375H41.3562V47.7188H38.175V44.5375ZM41.3562 41.3563H44.5375V44.5375H41.3562V41.3563ZM41.3562 38.175H44.5375V41.3563H41.3562V38.175ZM41.3562 34.9938H44.5375V38.175H41.3562V34.9938ZM41.3562 31.8125H44.5375V34.9938H41.3562V31.8125ZM41.3562 28.6313H44.5375V31.8125H41.3562V28.6313ZM41.3562 25.45H44.5375V28.6313H41.3562V25.45ZM41.3562 22.2688H44.5375V25.45H41.3562V22.2688ZM41.3562 19.0875H44.5375V22.2688H41.3562V19.0875ZM41.3562 15.9063H44.5375V19.0875H41.3562V15.9063ZM41.3562 12.725H44.5375V15.9063H41.3562V12.725ZM41.3562 9.54375H44.5375V12.725H41.3562V9.54375ZM41.3562 6.3625H44.5375V9.54375H41.3562V6.3625ZM41.3562 3.18125H44.5375V6.3625H41.3562V3.18125ZM41.3562 0H44.5375V3.18125H41.3562V0ZM38.175 0H41.3562V3.18125H38.175V0ZM38.175 3.18125H41.3562V6.3625H38.175V3.18125ZM38.175 6.3625H41.3562V9.54375H38.175V6.3625ZM38.175 9.54375H41.3562V12.725H38.175V9.54375ZM38.175 15.9063H41.3562V19.0875H38.175V15.9063ZM38.175 19.0875H41.3562V22.2688H38.175V19.0875ZM38.175 22.2688H41.3562V25.45H38.175V22.2688ZM38.175 25.45H41.3562V28.6313H38.175V25.45ZM38.175 34.9938H41.3562V38.175H38.175V34.9938ZM38.175 31.8125H41.3562V34.9938H38.175V31.8125ZM38.175 28.6313H41.3562V31.8125H38.175V28.6313ZM38.175 12.725H41.3562V15.9063H38.175V12.725ZM9.54375 3.18125H12.725V6.3625H9.54375V3.18125ZM9.54375 6.3625H12.725V9.54375H9.54375V6.3625ZM9.54375 9.54375H12.725V12.725H9.54375V9.54375ZM9.54375 12.725H12.725V15.9063H9.54375V12.725ZM9.54375 15.9063H12.725V19.0875H9.54375V15.9063ZM12.725 6.3625H15.9063V9.54375H12.725V6.3625ZM12.725 9.54375H15.9063V12.725H12.725V9.54375ZM12.725 12.725H15.9063V15.9063H12.725V12.725ZM12.725 15.9063H15.9063V19.0875H12.725V15.9063ZM12.725 19.0875H15.9063V22.2688H12.725V19.0875ZM15.9063 9.54375H19.0875V12.725H15.9063V9.54375ZM15.9063 12.725H19.0875V15.9063H15.9063V12.725ZM15.9063 15.9063H19.0875V19.0875H15.9063V15.9063ZM15.9063 19.0875H19.0875V22.2688H15.9063V19.0875ZM15.9063 22.2688H19.0875V25.45H15.9063V22.2688ZM19.0875 12.725H22.2688V15.9063H19.0875V12.725ZM19.0875 15.9063H22.2688V19.0875H19.0875V15.9063ZM19.0875 19.0875H22.2688V22.2688H19.0875V19.0875ZM19.0875 22.2688H22.2688V25.45H19.0875V22.2688ZM19.0875 25.45H22.2688V28.6313H19.0875V25.45ZM22.2688 15.9063H25.45V19.0875H22.2688V15.9063ZM22.2688 19.0875H25.45V22.2688H22.2688V19.0875ZM22.2688 22.2688H25.45V25.45H22.2688V22.2688ZM25.45 12.725H28.6312V15.9063H25.45V12.725ZM25.45 15.9063H28.6312V19.0875H25.45V15.9063ZM25.45 19.0875H28.6312V22.2688H25.45V19.0875ZM28.6312 9.54375H31.8125V12.725H28.6312V9.54375ZM28.6312 12.725H31.8125V15.9063H28.6312V12.725ZM28.6312 15.9063H31.8125V19.0875H28.6312V15.9063ZM34.9938 3.18125H38.175V6.3625H34.9938V3.18125ZM34.9938 6.3625H38.175V9.54375H34.9938V6.3625ZM34.9938 9.54375H38.175V12.725H34.9938V9.54375ZM34.9938 12.725H38.175V15.9063H34.9938V12.725ZM34.9938 15.9063H38.175V19.0875H34.9938V15.9063ZM31.8125 6.3625H34.9938V9.54375H31.8125V6.3625ZM31.8125 9.54375H34.9938V12.725H31.8125V9.54375ZM31.8125 12.725H34.9938V15.9063H31.8125V12.725ZM31.8125 15.9063H34.9938V19.0875H31.8125V15.9063ZM31.8125 19.0875H34.9938V22.2688H31.8125V19.0875ZM28.6312 19.0875H31.8125V22.2688H28.6312V19.0875ZM28.6312 22.2688H31.8125V25.45H28.6312V22.2688ZM25.45 22.2688H28.6312V25.45H25.45V22.2688ZM25.45 25.45H28.6312V28.6313H25.45V25.45ZM22.2688 25.45H25.45V28.6313H22.2688V25.45ZM22.2688 28.6313H25.45V31.8125H22.2688V28.6313Z" fill="#ECEDF5"/>
<path d="M8.05254 0H11.2338V3.18125H8.05254V0ZM11.2338 0H14.415V3.18125H11.2338V0ZM14.415 0H17.5963V3.18125H14.415V0ZM14.415 3.18125H17.5963V6.3625H14.415V3.18125ZM14.415 6.3625H17.5963V9.54375H14.415V6.3625ZM11.2338 6.3625H14.415V9.54375H11.2338V6.3625ZM11.2338 3.18125H14.415V6.3625H11.2338V3.18125ZM8.05254 3.18125H11.2338V6.3625H8.05254V3.18125ZM8.05254 6.3625H11.2338V9.54375H8.05254V6.3625ZM8.05254 9.54375H11.2338V12.725H8.05254V9.54375ZM8.05254 12.725H11.2338V15.9063H8.05254V12.725ZM11.2338 12.725H14.415V15.9063H11.2338V12.725ZM11.2338 9.54375H14.415V12.725H11.2338V9.54375ZM14.415 9.54375H17.5963V12.725H14.415V9.54375ZM14.415 12.725H17.5963V15.9063H14.415V12.725ZM17.5963 12.725H20.7775V15.9063H17.5963V12.725ZM14.415 15.9063H17.5963V19.0875H14.415V15.9063ZM11.2338 15.9063H14.415V19.0875H11.2338V15.9063ZM14.415 19.0875H17.5963V22.2688H14.415V19.0875ZM17.5963 19.0875H20.7775V22.2688H17.5963V19.0875ZM17.5963 15.9063H20.7775V19.0875H17.5963V15.9063ZM20.7775 15.9063H23.9588V19.0875H20.7775V15.9063ZM23.9588 15.9063H27.14V19.0875H23.9588V15.9063ZM27.14 15.9063H30.3213V19.0875H27.14V15.9063ZM27.14 12.725H30.3213V15.9063H27.14V12.725ZM30.3213 12.725H33.5025V15.9063H30.3213V12.725ZM30.3213 9.54375H33.5025V12.725H30.3213V9.54375ZM30.3213 6.3625H33.5025V9.54375H30.3213V6.3625ZM30.3213 3.18125H33.5025V6.3625H30.3213V3.18125ZM30.3213 0H33.5025V3.18125H30.3213V0ZM33.5025 0H36.6838V3.18125H33.5025V0ZM36.6838 0H39.865V3.18125H36.6838V0ZM36.6838 3.18125H39.865V6.3625H36.6838V3.18125ZM36.6838 6.3625H39.865V9.54375H36.6838V6.3625ZM36.6838 9.54375H39.865V12.725H36.6838V9.54375ZM36.6838 12.725H39.865V15.9063H36.6838V12.725ZM33.5025 12.725H36.6838V15.9063H33.5025V12.725ZM33.5025 9.54375H36.6838V12.725H33.5025V9.54375ZM33.5025 6.3625H36.6838V9.54375H33.5025V6.3625ZM33.5025 3.18125H36.6838V6.3625H33.5025V3.18125ZM33.5025 15.9063H36.6838V19.0875H33.5025V15.9063ZM30.3213 15.9063H33.5025V19.0875H30.3213V15.9063ZM30.3213 19.0875H33.5025V22.2688H30.3213V19.0875ZM27.14 19.0875H30.3213V22.2688H27.14V19.0875ZM23.9588 19.0875H27.14V22.2688H23.9588V19.0875ZM20.7775 19.0875H23.9588V22.2688H20.7775V19.0875ZM17.5963 22.2688H20.7775V25.45H17.5963V22.2688ZM20.7775 22.2688H23.9588V25.45H20.7775V22.2688ZM23.9588 22.2688H27.14V25.45H23.9588V22.2688ZM27.14 22.2688H30.3213V25.45H27.14V22.2688ZM27.14 25.45H30.3213V28.6313H27.14V25.45ZM30.3213 25.45H33.5025V28.6313H30.3213V25.45ZM23.9588 25.45H27.14V28.6313H23.9588V25.45ZM20.7775 25.45H23.9588V28.6313H20.7775V25.45ZM17.5963 25.45H20.7775V28.6313H17.5963V25.45ZM14.415 25.45H17.5963V28.6313H14.415V25.45ZM14.415 28.6313H17.5963V31.8125H14.415V28.6313ZM17.5963 28.6313H20.7775V31.8125H17.5963V28.6313ZM11.2338 28.6313H14.415V31.8125H11.2338V28.6313ZM20.7775 28.6313H23.9588V31.8125H20.7775V28.6313ZM23.9588 28.6313H27.14V31.8125H23.9588V28.6313ZM27.14 28.6313H30.3213V31.8125H27.14V28.6313ZM30.3213 28.6313H33.5025V31.8125H30.3213V28.6313ZM33.5025 28.6313H36.6838V31.8125H33.5025V28.6313ZM33.5025 31.8125H36.6838V34.9938H33.5025V31.8125ZM30.3213 31.8125H33.5025V34.9938H30.3213V31.8125ZM27.14 31.8125H30.3213V34.9938H27.14V31.8125ZM36.6838 31.8125H39.865V34.9938H36.6838V31.8125ZM36.6838 34.9938H39.865V38.175H36.6838V34.9938ZM36.6838 38.175H39.865V41.3563H36.6838V38.175ZM36.6838 41.3563H39.865V44.5375H36.6838V41.3563ZM36.6838 44.5375H39.865V47.7188H36.6838V44.5375ZM33.5025 44.5375H36.6838V47.7188H33.5025V44.5375ZM30.3213 44.5375H33.5025V47.7188H30.3213V44.5375ZM30.3213 41.3563H33.5025V44.5375H30.3213V41.3563ZM30.3213 38.175H33.5025V41.3563H30.3213V38.175ZM33.5025 34.9938H36.6838V38.175H33.5025V34.9938ZM33.5025 38.175H36.6838V41.3563H33.5025V38.175ZM33.5025 41.3563H36.6838V44.5375H33.5025V41.3563ZM30.3213 34.9938H33.5025V38.175H30.3213V34.9938ZM8.05254 44.5375H11.2338V47.7188H8.05254V44.5375ZM8.05254 41.3563H11.2338V44.5375H8.05254V41.3563ZM8.05254 38.175H11.2338V41.3563H8.05254V38.175ZM8.05254 34.9938H11.2338V38.175H8.05254V34.9938ZM8.05254 31.8125H11.2338V34.9938H8.05254V31.8125ZM11.2338 31.8125H14.415V34.9938H11.2338V31.8125ZM14.415 31.8125H17.5963V34.9938H14.415V31.8125ZM17.5963 31.8125H20.7775V34.9938H17.5963V31.8125ZM14.415 34.9938H17.5963V38.175H14.415V34.9938ZM14.415 38.175H17.5963V41.3563H14.415V38.175ZM14.415 41.3563H17.5963V44.5375H14.415V41.3563ZM14.415 44.5375H17.5963V47.7188H14.415V44.5375ZM11.2338 44.5375H14.415V47.7188H11.2338V44.5375ZM11.2338 41.3563H14.415V44.5375H11.2338V41.3563ZM11.2338 38.175H14.415V41.3563H11.2338V38.175ZM11.2338 34.9938H14.415V38.175H11.2338V34.9938Z" fill="#ECEDF5"/>
</svg>
