<svg width="497" height="84" viewBox="0 0 497 84" fill="none" xmlns="http://www.w3.org/2000/svg">
<path d="M0.68 83.536V23.632H37.8V35.152H46.76V23.632H72.488V35.152H83.88V83.536H69.928V37.968H49.32V83.536H35.368V37.968H14.76V83.536H0.68ZM196.97 83.536V72.144H185.45V37.968H173.93V23.632H185.45V0.975998H199.402V23.632H234.218V37.968H199.402V69.2H231.658V57.68H245.738V72.144H234.218V83.536H196.97ZM333.055 83.536V23.632H347.135V83.536H333.055ZM333.055 15.44V0.975998H347.135V15.44H333.055ZM435.93 83.536V23.632H484.57V35.152H496.218V83.536H482.01V37.968H450.01V83.536H435.93Z" fill="#ECEDF5"/>
<path d="M109.7 83.536V72.144H98.18V35.152H109.7V23.632H146.82V35.152H158.468V72.144H146.82V83.536H109.7ZM112.26 69.2H144.26V37.968H112.26V69.2ZM257.305 83.536V69.2H268.825V57.68H280.345V49.36H268.825V37.968H257.305V23.632H271.385V35.152H282.777V46.288H291.993V35.152H303.385V23.632H317.593V37.968H305.945V49.36H294.425V57.68H305.945V69.2H317.593V83.536H303.385V72.144H291.993V60.752H282.777V72.144H271.385V83.536H257.305ZM371.7 83.536V72.144H360.18V35.152H371.7V23.632H408.82V35.152H420.468V72.144H408.82V83.536H371.7ZM374.26 69.2H406.26V37.968H374.26V69.2Z" fill="#3B82F6"/>
</svg>
